<svg width="126" height="121" viewBox="0 0 126 121" fill="none" xmlns="http://www.w3.org/2000/svg">
<path d="M59.0828 58.5897C59.5828 56.5897 59.8745 54.9647 60.4161 53.3813C65.8328 37.3813 74.5411 23.1313 84.4578 9.58966C85.6245 8.00633 87.0828 6.50633 88.7078 5.50633C89.5828 4.96466 91.3328 5.048 92.3328 5.58966C93.0828 6.00633 93.6245 7.63133 93.4578 8.54799C93.1661 10.298 92.5411 12.0897 91.6661 13.673C85.9161 24.1313 80.1245 34.548 74.2495 44.923C72.0411 48.798 69.7078 52.6313 67.4161 56.4647C66.6661 57.7563 65.8328 59.0063 64.9578 60.173C63.9994 61.5063 62.5411 62.298 61.0828 61.423C60.1245 60.8397 59.0828 60.423 59.0828 58.5897Z" fill="#CD4631"/>
<path d="M118.083 120.633C116.083 120.299 113.749 120.049 111.499 119.549C102.624 117.549 93.7494 115.549 84.9161 113.466C82.9994 113.008 81.1244 112.216 79.4161 111.299C77.1244 110.091 76.3328 108.383 76.7078 106.508C77.0828 104.633 78.5828 103.466 81.2078 103.424C82.9994 103.383 84.9161 103.424 86.6244 103.841C97.8328 106.674 109.041 109.591 120.208 112.549C121.458 112.883 122.749 113.466 123.708 114.299C126.124 116.341 125.374 119.549 122.291 120.341C121.083 120.633 119.708 120.508 118.083 120.633Z" fill="#CD4631"/>
<path d="M0.999399 8.92358C1.16607 6.96525 1.58273 5.00692 2.08273 3.09025C2.54107 1.38192 3.70773 0.173587 5.58273 0.0069201C7.16607 -0.11808 8.8744 1.46526 9.1244 3.54859C9.45773 6.34026 9.7494 9.17359 9.6244 11.9653C9.2494 20.3819 8.70773 28.8403 8.1244 37.2569C7.91606 40.0486 7.54106 42.8403 7.08273 45.6319C6.91606 46.5903 6.58273 47.5903 6.04106 48.3403C4.58273 50.4653 1.91607 50.2986 0.8744 48.0069C0.291067 46.7153 0.0410679 45.1319 0.0410679 43.7153C-0.167265 39.0486 0.457733 15.8403 0.999399 8.92358Z" fill="#CD4631"/>
</svg>
